<svg width="534" height="534" viewBox="0 0 534 534" fill="none" xmlns="http://www.w3.org/2000/svg">
<path d="M0 30C0 13.4314 13.4315 0 30 0H504C520.569 0 534 13.4315 534 30V504C534 520.569 520.569 534 504 534H30C13.4314 534 0 520.569 0 504V30Z" fill="#0E76A8"/>
<path d="M139.317 367.96C124.437 367.96 112.077 365.2 102.237 359.68C92.3973 354.16 85.0773 345.88 80.2773 334.84C75.7173 323.56 73.4373 309.64 73.4373 293.08V187.24H127.797V294.52C127.797 301.48 128.757 307.36 130.677 312.16C132.597 316.72 135.477 320.2 139.317 322.6C143.397 324.76 148.557 325.84 154.797 325.84C161.757 325.84 167.877 324.28 173.157 321.16C178.437 317.8 182.517 313.12 185.397 307.12C188.517 301.12 190.077 294.04 190.077 285.88V187.24H244.437V364H191.517V329.44H196.917C191.637 341.68 184.077 351.16 174.237 357.88C164.397 364.6 152.757 367.96 139.317 367.96Z" fill="white"/>
<path d="M286.501 364V187.24H339.781V220.36H335.821C341.341 208.6 349.501 199.6 360.301 193.36C371.341 186.88 383.821 183.64 397.741 183.64C411.901 183.64 423.541 186.4 432.661 191.92C441.781 197.2 448.621 205.36 453.181 216.4C457.741 227.2 460.021 241 460.021 257.8V364H405.661V260.32C405.661 252.16 404.581 245.56 402.421 240.52C400.501 235.24 397.501 231.52 393.421 229.36C389.581 226.96 384.661 225.76 378.661 225.76C370.981 225.76 364.261 227.44 358.501 230.8C352.981 233.92 348.661 238.48 345.541 244.48C342.421 250.48 340.861 257.44 340.861 265.36V364H286.501Z" fill="white"/>
</svg>
