<svg viewBox="0 0 534 534" fill="none" xmlns="http://www.w3.org/2000/svg">
<path d="M504 0C520.569 0 534 13.4315 534 30V504C534 520.569 520.569 534 504 534H30C13.4315 534 4.34902e-07 520.569 0 504V0H504ZM73.4375 187.239V293.08C73.4375 309.64 75.7174 323.56 80.2773 334.84C85.0773 345.88 92.3974 354.16 102.237 359.68C112.077 365.2 124.437 367.96 139.317 367.96C152.757 367.96 164.397 364.6 174.237 357.88C181.11 353.186 186.869 347.145 191.518 339.758V364H244.438V187.239H190.077V285.88C190.077 294.04 188.517 301.12 185.397 307.12C182.517 313.12 178.437 317.8 173.157 321.16C167.877 324.28 161.758 325.84 154.798 325.84C148.558 325.84 143.397 324.76 139.317 322.6C135.478 320.2 132.598 316.72 130.678 312.16C128.758 307.36 127.798 301.48 127.798 294.52V187.239H73.4375ZM397.741 183.64C383.821 183.64 371.341 186.879 360.301 193.359C351.841 198.247 345.001 204.829 339.781 213.104V187.239H286.501V364H340.861V265.359C340.861 257.439 342.421 250.479 345.541 244.479C348.661 238.48 352.981 233.92 358.501 230.8C364.261 227.44 370.981 225.76 378.661 225.76C384.661 225.76 389.581 226.96 393.421 229.359C397.501 231.519 400.501 235.24 402.421 240.52C404.581 245.559 405.661 252.159 405.661 260.319V364H460.021V257.8C460.021 241 457.742 227.199 453.182 216.399C448.622 205.359 441.781 197.2 432.661 191.92C423.541 186.4 411.901 183.64 397.741 183.64Z" fill="white"/>
</svg>
